<svg xmlns="http://www.w3.org/2000/svg" style="display:none">
  <symbol id="ic-robot" viewBox="0 0 40 40">
    <rect width="40" height="40" rx="10" fill="#2563eb"/>
    <rect x="9" y="13" width="22" height="16" rx="5" fill="white"/>
    <circle cx="15" cy="21" r="2.8" fill="#2563eb"/>
    <circle cx="25" cy="21" r="2.8" fill="#2563eb"/>
    <rect x="16.5" y="25.5" width="7" height="2" rx="1" fill="#2563eb"/>
    <rect x="18" y="8" width="4" height="7" rx="2" fill="#2563eb"/>
    <circle cx="20" cy="8.5" r="2.2" fill="#93c5fd"/>
  </symbol>
  <symbol id="ic-pin" viewBox="0 0 24 24" fill="none" stroke="currentColor" stroke-width="2" stroke-linecap="round" stroke-linejoin="round">
    <path d="M21 10c0 7-9 13-9 13s-9-6-9-13a9 9 0 0 1 18 0z"/><circle cx="12" cy="10" r="3"/>
  </symbol>
  <symbol id="ic-star" viewBox="0 0 24 24" fill="none" stroke="currentColor" stroke-width="2" stroke-linecap="round" stroke-linejoin="round">
    <polygon points="12 2 15.09 8.26 22 9.27 17 14.14 18.18 21.02 12 17.77 5.82 21.02 7 14.14 2 9.27 8.91 8.26 12 2"/>
  </symbol>
  <symbol id="ic-cloud" viewBox="0 0 24 24" fill="none" stroke="currentColor" stroke-width="2" stroke-linecap="round" stroke-linejoin="round">
    <path d="M18 10h-1.26A8 8 0 1 0 9 20h9a5 5 0 0 0 0-10z"/>
  </symbol>
  <symbol id="ic-alert" viewBox="0 0 24 24" fill="none" stroke="currentColor" stroke-width="2" stroke-linecap="round" stroke-linejoin="round">
    <path d="M10.29 3.86L1.82 18a2 2 0 0 0 1.71 3h16.94a2 2 0 0 0 1.71-3L13.71 3.86a2 2 0 0 0-3.42 0z"/>
    <line x1="12" y1="9" x2="12" y2="13"/><line x1="12" y1="17" x2="12.01" y2="17"/>
  </symbol>
  <symbol id="ic-phone" viewBox="0 0 24 24" fill="none" stroke="currentColor" stroke-width="2" stroke-linecap="round" stroke-linejoin="round">
    <rect x="5" y="2" width="14" height="20" rx="2" ry="2"/><line x1="12" y1="18" x2="12.01" y2="18"/>
  </symbol>
  <symbol id="ic-chart" viewBox="0 0 24 24" fill="none" stroke="currentColor" stroke-width="2" stroke-linecap="round" stroke-linejoin="round">
    <line x1="18" y1="20" x2="18" y2="10"/><line x1="12" y1="20" x2="12" y2="4"/><line x1="6" y1="20" x2="6" y2="14"/>
  </symbol>
  <symbol id="ic-rain" viewBox="0 0 24 24" fill="none" stroke="currentColor" stroke-width="2" stroke-linecap="round" stroke-linejoin="round">
    <line x1="16" y1="13" x2="16" y2="21"/><line x1="8" y1="13" x2="8" y2="21"/><line x1="12" y1="15" x2="12" y2="23"/>
    <path d="M20 16.58A5 5 0 0 0 18 7h-1.26A8 8 0 1 0 4 15.25"/>
  </symbol>
  <symbol id="ic-bulb" viewBox="0 0 24 24" fill="none" stroke="currentColor" stroke-width="2" stroke-linecap="round" stroke-linejoin="round">
    <line x1="9" y1="18" x2="15" y2="18"/><line x1="10" y1="22" x2="14" y2="22"/>
    <path d="M15.09 14c.18-.98.65-1.74 1.41-2.5A4.65 4.65 0 0 0 18 8 6 6 0 0 0 6 8c0 1 .23 2.23 1.5 3.5A4.61 4.61 0 0 1 8.91 14"/>
  </symbol>
  <symbol id="ic-recycle" viewBox="0 0 24 24" fill="none" stroke="currentColor" stroke-width="1.8" stroke-linecap="round" stroke-linejoin="round">
    <polyline points="1 4 1 10 7 10"/><polyline points="23 20 23 14 17 14"/>
    <path d="M20.49 9A9 9 0 0 0 5.64 5.64L1 10m22 4l-4.64 4.36A9 9 0 0 1 3.51 15"/>
  </symbol>
  <symbol id="ic-building" viewBox="0 0 24 24" fill="none" stroke="currentColor" stroke-width="1.8" stroke-linecap="round" stroke-linejoin="round">
    <rect x="3" y="3" width="7" height="18"/><rect x="14" y="3" width="7" height="18"/>
    <line x1="3" y1="9" x2="21" y2="9"/><line x1="3" y1="15" x2="21" y2="15"/>
  </symbol>
  <symbol id="ic-trend" viewBox="0 0 24 24" fill="none" stroke="currentColor" stroke-width="1.8" stroke-linecap="round" stroke-linejoin="round">
    <polyline points="23 6 13.5 15.5 8.5 10.5 1 18"/><polyline points="17 6 23 6 23 12"/>
  </symbol>
  <symbol id="ic-user" viewBox="0 0 24 24" fill="none" stroke="currentColor" stroke-width="2" stroke-linecap="round" stroke-linejoin="round">
    <path d="M20 21v-2a4 4 0 0 0-4-4H8a4 4 0 0 0-4 4v2"/><circle cx="12" cy="7" r="4"/>
  </symbol>
  <symbol id="ic-play" viewBox="0 0 24 24" fill="currentColor">
    <polygon points="5,3 19,12 5,21"/>
  </symbol>
</svg>